<?xml version="1.0" encoding="UTF-8"?>
<svg xmlns="http://www.w3.org/2000/svg" version="1.1" viewBox="0 0 187.9 63.5">
  <defs>
    <style>
      .cls-1 {
        fill: #ffffff;
      }
      .cls-2 {
        fill: #6983ff;
        fill-rule: evenodd;
      }
    </style>
  </defs>
  <g>
    <g>
      <g>
        <path class="cls-2" d="M15.2,50l-9.4-5.9v-25L28.8,6l22.3,13.1v26.3l-22.7,12.8-7.9-4.9v-12l-4.3-2.7v-13.6l12.4-7.1,12.1,7.1v14.2l-9.6,5.4v-5.7c2.9-1.1,4.9-3.9,4.9-7.3s-3.4-7.8-7.6-7.8-7.6,3.5-7.6,7.8,2.1,6.2,4.9,7.3v10.9l2.7,1.7,16.8-9.5v-19.7l-16.6-9.8-17.1,9.8v18.5l3.6,2.3v6.8ZM28.5,28.1c1.9,0,3.4,1.6,3.4,3.6s-1.5,3.6-3.4,3.6-3.4-1.6-3.4-3.6,1.5-3.6,3.4-3.6Z"/>
        <g>
          <path class="cls-1" d="M85.2,11.4l-12.1,33.8h-4l-12.1-33.8h4.1l7.9,22.3c.3.9.6,1.8.9,2.6.3.8.5,1.6.7,2.4.2.8.4,1.5.5,2.2.2-.7.3-1.4.5-2.2.2-.8.4-1.6.7-2.4.3-.8.6-1.7.9-2.6l7.9-22.2h4.2Z"/>
          <path class="cls-1" d="M94,19.5c3,0,5.3.7,6.7,2,1.5,1.4,2.2,3.5,2.2,6.5v17.2h-2.8l-.7-3.7h-.2c-.7.9-1.4,1.7-2.2,2.3-.8.6-1.7,1.1-2.7,1.4-1,.3-2.2.5-3.7.5s-2.9-.3-4.1-.8c-1.2-.5-2.1-1.4-2.8-2.5-.7-1.1-1-2.5-1-4.2,0-2.5,1-4.5,3-5.8,2-1.4,5.1-2.1,9.2-2.2l4.4-.2v-1.5c0-2.2-.5-3.7-1.4-4.6-.9-.9-2.3-1.3-4-1.3-1.3,0-2.6.2-3.8.6-1.2.4-2.3.8-3.4,1.4l-1.2-2.9c1.1-.6,2.5-1.1,3.9-1.5,1.5-.4,3-.6,4.7-.6h0ZM99.1,32.8l-3.9.2c-3.2.1-5.4.6-6.7,1.5s-1.9,2.2-1.9,3.9.4,2.5,1.3,3.2c.9.7,2,1,3.5,1,2.3,0,4.1-.6,5.5-1.9s2.2-3.1,2.2-5.6v-2.3Z"/>
          <path class="cls-1" d="M112.1,45.3h-3.9V9.3h3.9v36Z"/>
          <path class="cls-1" d="M121.3,9.3v18.7c0,.6,0,1.4,0,2.3,0,.9,0,1.7-.1,2.3h.2c.3-.4.8-1,1.4-1.8.6-.8,1.2-1.4,1.6-1.9l8.4-9h4.5l-10.2,10.8,10.9,14.5h-4.6l-9-12-3.1,2.8v9.2h-3.8V9.3h3.8Z"/>
          <path class="cls-1" d="M148.2,19.4c2.2,0,4,.5,5.6,1.4,1.5,1,2.7,2.3,3.5,4,.8,1.7,1.2,3.7,1.2,6v2.4h-17.5c0,3,.8,5.2,2.2,6.8s3.5,2.3,6.1,2.3,3-.1,4.3-.4c1.2-.3,2.5-.7,3.8-1.3v3.4c-1.3.6-2.6,1-3.8,1.2-1.2.3-2.7.4-4.4.4-2.4,0-4.6-.5-6.4-1.5-1.8-1-3.2-2.5-4.2-4.4-1-1.9-1.5-4.3-1.5-7.1,0-2.7.5-5.1,1.4-7.1.9-2,2.2-3.5,3.9-4.6,1.7-1.1,3.7-1.6,5.9-1.6h0ZM148.2,22.6c-2.1,0-3.7.7-4.9,2-1.2,1.3-1.9,3.2-2.2,5.6h13.4c0-1.5-.3-2.8-.7-4-.4-1.2-1.1-2.1-2.1-2.7-.9-.6-2.1-1-3.6-1Z"/>
          <path class="cls-1" d="M158.4,19.9h4.1l5.6,14.7c.3.9.6,1.7.9,2.5.3.8.5,1.5.7,2.3.2.7.4,1.4.5,2.1h.2c.2-.8.5-1.8.9-3,.4-1.3.8-2.6,1.3-3.9l5.3-14.7h4.1l-11,29.1c-.6,1.6-1.3,2.9-2.1,4.1-.8,1.2-1.7,2-2.8,2.7-1.1.6-2.5.9-4,.9s-1.4,0-1.9-.1c-.6,0-1-.2-1.4-.3v-3.1c.3,0,.7.1,1.2.2.5,0,1,0,1.5,0,1,0,1.8-.2,2.5-.6.7-.4,1.3-.9,1.8-1.6.5-.7.9-1.5,1.3-2.5l1.4-3.6-10.2-25.4Z"/>
        </g>
      </g>
    </g>
  </g>
</svg>
